<svg xmlns="http://www.w3.org/2000/svg" count="100%" height="100%">
	<circle cx="50%" cy="50%" r="5%" fill-opacity=".3" fill="#4194b3"/>
	<circle cx="50%" cy="50%" r="10%" fill-opacity=".3" fill="#4194b3"/>
	<circle cx="50%" cy="50%" r="15%" fill-opacity=".3" fill="#4194b3"/>
	<circle cx="50%" cy="50%" r="20%" fill-opacity=".3" fill="#4194b3"/>
	<circle cx="50%" cy="50%" r="25%" fill-opacity=".3" fill="#4194b3"/>
	<circle cx="50%" cy="50%" r="30%" fill-opacity=".3" fill="#4194b3"/>
	<circle cx="50%" cy="50%" r="35%" fill-opacity=".3" fill="#4194b3"/>
	<circle cx="50%" cy="50%" r="40%" fill-opacity=".3" fill="#4194b3"/>
	<circle cx="50%" cy="50%" r="45%" fill-opacity=".3" fill="#4194b3"/>
	<circle cx="50%" cy="50%" r="50%" fill-opacity=".3" fill="#4194b3"/>
	<circle cx="50%" cy="-10%" r="20%" fill-opacity=".2" fill="#25a2cf"/>
	<circle cx="50%" cy="-10%" r="30%" fill-opacity=".2" fill="#25a2cf"/>
	<circle cx="50%" cy="-10%" r="40%" fill-opacity=".2" fill="#25a2cf"/>
	<circle cx="50%" cy="-10%" r="50%" fill-opacity=".2" fill="#25a2cf"/>
	<circle cx="50%" cy="-10%" r="60%" fill-opacity=".2" fill="#25a2cf"/>
	<circle cx="50%" cy="-10%" r="70%" fill-opacity=".2" fill="#25a2cf"/>
	<circle cx="50%" cy="-10%" r="80%" fill-opacity=".2" fill="#25a2cf"/>
	<circle cx="50%" cy="-10%" r="90%" fill-opacity=".2" fill="#25a2cf"/>
	<circle cx="50%" cy="-10%" r="100%" fill-opacity=".2" fill="#25a2cf"/>
	<circle cx="0" cy="0" r="10%" fill-opacity=".2" fill="#007099"/>
	<circle cx="0" cy="0" r="20%" fill-opacity=".2" fill="#007099"/>
	<circle cx="0" cy="0" r="30%" fill-opacity=".2" fill="#007099"/>
	<circle cx="0" cy="0" r="40%" fill-opacity=".2" fill="#007099"/>
	<circle cx="0" cy="0" r="50%" fill-opacity=".2" fill="#007099"/>
	<circle cx="0" cy="0" r="60%" fill-opacity=".2" fill="#007099"/>
	<circle cx="0" cy="0" r="70%" fill-opacity=".2" fill="#007099"/>
	<circle cx="100%" cy="0" r="10%" fill-opacity=".1" fill="#7ddcff"/>
	<circle cx="100%" cy="0" r="20%" fill-opacity=".1" fill="#7ddcff"/>
	<circle cx="100%" cy="0" r="30%" fill-opacity=".1" fill="#7ddcff"/>
	<circle cx="100%" cy="0" r="40%" fill-opacity=".1" fill="#7ddcff"/>
	<circle cx="100%" cy="0" r="50%" fill-opacity=".1" fill="#7ddcff"/>
	<circle cx="100%" cy="0" r="60%" fill-opacity=".1" fill="#7ddcff"/>
	<circle cx="100%" cy="0" r="70%" fill-opacity=".1" fill="#7ddcff"/>
	<circle cx="100%" cy="100%" r="10%" fill-opacity=".1" fill="#0081b0"/>
	<circle cx="100%" cy="100%" r="20%" fill-opacity=".1" fill="#0081b0"/>
	<circle cx="100%" cy="100%" r="30%" fill-opacity=".1" fill="#0081b0"/>
	<circle cx="100%" cy="100%" r="40%" fill-opacity=".1" fill="#0081b0"/>
	<circle cx="100%" cy="100%" r="50%" fill-opacity=".1" fill="#0081b0"/>
	<circle cx="100%" cy="100%" r="60%" fill-opacity=".1" fill="#0081b0"/>
	<circle cx="100%" cy="100%" r="70%" fill-opacity=".1" fill="#0081b0"/>
	<circle cx="0%" cy="100%" r="10%" fill-opacity=".1" fill="#66d6ff"/>
	<circle cx="0%" cy="100%" r="20%" fill-opacity=".1" fill="#66d6ff"/>
	<circle cx="0%" cy="100%" r="30%" fill-opacity=".1" fill="#66d6ff"/>
	<circle cx="0%" cy="100%" r="40%" fill-opacity=".1" fill="#66d6ff"/>
	<circle cx="0%" cy="100%" r="50%" fill-opacity=".1" fill="#66d6ff"/>
	<circle cx="0%" cy="100%" r="60%" fill-opacity=".1" fill="#66d6ff"/>
	<circle cx="0%" cy="100%" r="70%" fill-opacity=".1" fill="#66d6ff"/>
</svg>