<?xml version="1.0" ?><svg data-name="Layer 1" id="Layer_1" viewBox="0 0 150 150" xmlns="http://www.w3.org/2000/svg" xmlns:xlink="http://www.w3.org/1999/xlink"><defs><style>.cls-1{fill:#13818d;}.cls-2{clip-path:url(#clip-path);}.cls-3{fill:#44c2c7;}.cls-4{fill:#fff;}.cls-5{fill:#30a7ad;}</style><clipPath id="clip-path"><circle class="cls-1" cx="75" cy="75" r="65"/></clipPath></defs><title/><circle class="cls-1" cx="75" cy="75" r="65"/><g class="cls-2"><path class="cls-3" d="M131.73,83.81A21.09,21.09,0,0,1,112.81,72a21.09,21.09,0,0,1-37.73.22,21.09,21.09,0,0,1-37.28.65,21.1,21.1,0,0,1-39.3-6.8h-0.3v40.6H152.84V66.1h-0.3A21.11,21.11,0,0,1,131.73,83.81Z"/><path class="cls-4" d="M107.53,70.3a0.86,0.86,0,0,0-.49-0.47L75.52,57.95a0.88,0.88,0,0,0-.61,0L43.15,69.83A0.87,0.87,0,0,0,42.68,71c0.13,0.26,13.12,26.38,17.7,38.91a0.87,0.87,0,0,0,.82.57H91a0.87,0.87,0,0,0,.82-0.57c3.67-10.07,15.6-38.67,15.72-39A0.87,0.87,0,0,0,107.53,70.3Z"/><polygon class="cls-5" points="74.13 97.55 75.14 73.28 76.14 97.55 74.13 97.55"/><path class="cls-5" d="M131.73,102.36a21.09,21.09,0,0,1-18.92-11.78,21.08,21.08,0,0,1-37.73.22,21.09,21.09,0,0,1-37.28.65,21.1,21.1,0,0,1-39.3-6.8h-0.3v40.6H152.84V84.65h-0.3A21.11,21.11,0,0,1,131.73,102.36Z"/><path class="cls-1" d="M131.73,124.08a21.08,21.08,0,0,1-18.92-11.78,21.08,21.08,0,0,1-37.73.22,21.09,21.09,0,0,1-37.28.65,21.1,21.1,0,0,1-39.3-6.8h-0.3V147H152.84v-40.6h-0.3A21.11,21.11,0,0,1,131.73,124.08Z"/><path class="cls-4" d="M96.68,44.6H91.48v-1.8a0.65,0.65,0,0,0-.65-0.65h-14V38a0.65,0.65,0,0,0-.65-0.65H75.38V32.17l9.14-3.32-9.89-2.26V37.32H74a0.65,0.65,0,0,0-.65.65v4.17h-14a0.65,0.65,0,0,0-.65.65v1.8H53.5a0.65,0.65,0,0,0-.65.65v9.29a0.65,0.65,0,0,0,.65.65h5.2v6.38l16.2-6.06a0.88,0.88,0,0,1,.61,0l16,6V55.19h5.21a0.65,0.65,0,0,0,.65-0.65V45.25A0.65,0.65,0,0,0,96.68,44.6ZM71.22,52.37a0.65,0.65,0,0,1-.65.65H62a0.65,0.65,0,0,1-.65-0.65V47.51A0.65,0.65,0,0,1,62,46.86h8.57a0.65,0.65,0,0,1,.65.65v4.85Zm17.4,0A0.65,0.65,0,0,1,88,53H79.4a0.65,0.65,0,0,1-.65-0.65V47.51a0.65,0.65,0,0,1,.65-0.65H88a0.65,0.65,0,0,1,.65.65v4.85Z"/></g></svg>